<?xml version="1.0" encoding="iso-8859-1"?>
<!-- Generator: Adobe Illustrator 19.0.0, SVG Export Plug-In . SVG Version: 6.00 Build 0)  -->
<svg version="1.1" id="Capa_1" xmlns="http://www.w3.org/2000/svg" xmlns:xlink="http://www.w3.org/1999/xlink" x="0px" y="0px"
	 viewBox="0 0 489.6 489.6" style="enable-background:new 0 0 489.6 489.6;" xml:space="preserve">
<g>
	<g>
		<path d="M447.333,383.2c-62.3-42.8-151.8-57.6-151.8-57.6l-13.5-111.9c0-16.5-13.4-30-30-30c-16.3,0-29.5,12.9-29.9,29.1l0,0v60.7
			l-1.2,172.1l-35.4-27.3c0,0-45.4-40.1-83,1.2c0,0,24.1,33.9,62.2,70.1h280.5C458.133,438.4,447.333,383.2,447.333,383.2z"/>
		<path d="M84.433,0h-32.6c-7.6,0-13.8,6.2-13.8,13.8v32.5c0,7.6,6.2,13.8,13.8,13.8h32.5c7.6,0,13.8-6.2,13.8-13.8V13.8
			C98.133,6.2,92.033,0,84.433,0z"/>
		<path d="M143.833,60.1h32.5c7.6,0,13.8-6.2,13.8-13.8V13.8c0-7.6-6.2-13.8-13.8-13.8h-32.5c-7.6,0-13.8,6.2-13.8,13.8v32.5
			C130.033,53.9,136.233,60.1,143.833,60.1z"/>
		<path d="M84.433,92.3h-32.6c-7.6,0-13.8,6.2-13.8,13.8v32.5c0,7.6,6.2,13.8,13.8,13.8h32.5c7.6,0,13.8-6.2,13.8-13.8v-32.5
			C98.133,98.5,92.033,92.3,84.433,92.3z"/>
		<path d="M143.833,152.4h32.5c7.6,0,13.8-6.2,13.8-13.8v-32.5c0-7.6-6.2-13.8-13.8-13.8h-32.5c-7.6,0-13.8,6.2-13.8,13.8v32.5
			C130.033,146.2,136.233,152.4,143.833,152.4z"/>
		<path d="M84.433,184.3h-32.6c-7.6,0-13.8,6.2-13.8,13.8v32.5c0,7.6,6.2,13.8,13.8,13.8h32.5c7.6,0,13.8-6.2,13.8-13.8v-32.5
			C98.133,190.5,92.033,184.3,84.433,184.3z"/>
		<path d="M143.833,244.4h32.5c7.6,0,13.8-6.2,13.8-13.8v-32.5c0-7.6-6.2-13.8-13.8-13.8h-32.5c-7.6,0-13.8,6.2-13.8,13.8v32.5
			C130.033,238.2,136.233,244.4,143.833,244.4z"/>
		<path d="M143.833,336.5h32.5c7.6,0,13.8-6.2,13.8-13.8v-32.5c0-7.6-6.2-13.8-13.8-13.8h-32.5c-7.6,0-13.8,6.2-13.8,13.8v32.6
			C130.033,330.4,136.233,336.5,143.833,336.5z"/>
		<path d="M235.733,60.1h32.5c7.6,0,13.8-6.2,13.8-13.8V13.8c0-7.6-6.2-13.8-13.8-13.8h-32.5c-7.6,0-13.8,6.2-13.8,13.8v32.5
			C222.033,53.9,228.133,60.1,235.733,60.1z"/>
		<path d="M235.733,152.4h32.5c7.6,0,13.8-6.2,13.8-13.8v-32.5c0-7.6-6.2-13.8-13.8-13.8h-32.5c-7.6,0-13.8,6.2-13.8,13.8v32.5
			C222.033,146.2,228.133,152.4,235.733,152.4z"/>
	</g>
</g>
<g>
</g>
<g>
</g>
<g>
</g>
<g>
</g>
<g>
</g>
<g>
</g>
<g>
</g>
<g>
</g>
<g>
</g>
<g>
</g>
<g>
</g>
<g>
</g>
<g>
</g>
<g>
</g>
<g>
</g>
</svg>
